<svg xmlns="http://www.w3.org/2000/svg" xmlns:xlink="http://www.w3.org/1999/xlink" width="28" height="17" viewBox="0 0 28 17"><defs><path id="omwba" d="M1855.842 1005.763v-1.6h6.767v1.6zm-4.504 6.564c.436.643.655 1.425.655 2.343 0 .95-.247 1.801-.747 2.554a4.503 4.503 0 0 1-1.189 1.256c-.535.393-3.057 1.52-3.057 1.52h-9v-17h8c2.045.031 3.832 1.094 4.688 2.203.514.68.769 1.495.769 2.444 0 .978-.258 1.76-.777 2.355-.289.334-.715.637-1.28.91.855.299 1.504.769 1.938 1.415zm-9.338-2.328h4c.73 0 .974-.323 1.428-.588.455-.264.682-.734.682-1.407 0-.744-.3-1.239-.903-1.476-.517-.166-1.404-.529-2.207-.529h-3zm6.452 4.443c0-.83-.356-1.406-1.069-1.714-.398-.175-.663-.722-1.383-.728h-4v5h4c.73 0 .941-.37 1.349-.56.735-.349 1.103-1.013 1.103-1.998zm16.667-2.604c.082.524.119 1.284.104 2.277h-8.763c.048 1.152.465 1.957 1.257 2.418.478.29 1.057.43 1.735.43.715 0 1.298-.172 1.746-.525.245-.188.46-.453.647-.787h3.212c-.084.68-.471 1.37-1.166 2.072-1.077 1.114-2.587 1.673-4.526 1.673-1.603 0-3.015-.47-4.24-1.41-1.222-.943-1.836-2.471-1.836-4.591 0-1.99.551-3.512 1.657-4.57 1.109-1.063 2.54-1.59 4.305-1.59 1.046 0 1.99.177 2.83.536a4.817 4.817 0 0 1 2.078 1.697c.494.683.812 1.472.96 2.37zm-4.003-1.512c-.498-.413-1.121-.62-1.865-.62-.809 0-1.433.221-1.877.657-.447.434-.725 1.026-.84 1.774h5.423c-.059-.796-.338-1.399-.84-1.811z"/></defs><g><g transform="translate(-1838 -1003)"><use fill="#010101" xlink:href="#omwba"/></g></g></svg>