<svg xmlns="http://www.w3.org/2000/svg" xmlns:xlink="http://www.w3.org/1999/xlink" width="22" height="22" viewBox="0 0 22 22"><defs><path id="5jxja" d="M973 2277.75v16.5c0 .773-.464 1.332-1.017 1.886-.553.554-.96.864-1.733.864h-16.5c-.773 0-1.53-.31-2.083-.864-.554-.554-.667-1.113-.667-1.886v-16.5c0-.774.113-1.402.667-1.956.553-.553 1.31-.794 2.083-.794h16.5c.773 0 1.18.24 1.733.794.553.554 1.017 1.182 1.017 1.956zm-15.568 8.172c0 1.184.432 2.194 1.295 3.03.864.835 1.9 1.254 3.112 1.254 1.221 0 2.263-.419 3.126-1.254.863-.836 1.295-1.846 1.295-3.03 0-1.184-.432-2.193-1.295-3.03-.863-.835-1.905-1.253-3.126-1.253-1.211 0-2.249.418-3.112 1.253-.863.837-1.295 1.846-1.295 3.03zm13.735 7.412v-9.168h-2.75c.19.603.261 1.336.261 1.986a6.35 6.35 0 0 1-.916 3.33 6.689 6.689 0 0 1-2.489 2.414 6.868 6.868 0 0 1-3.434.888c-1.879 0-3.486-.647-4.822-1.94-1.335-1.295-2.002-2.859-2.002-4.692 0-.65.377-1.383.568-1.986h-2.75v9.168c0-.185.17 1.776 1.833 1.833h14.667c1.718.057 1.834-1.833 1.834-1.833zm-.367-15.035c-.025-.946-1.1-1.1-1.1-1.1h-2.75c-.276 0-.614.312-.804.508a.962.962 0 0 0-.287.695v2.363c0 .277.096.512.287.702.19.191.528.132.804.132h2.75c.414-.095.564-.089.601-.056.198-.237.5-.79.5-1.044zm-.55 3.3c-.117.119.112-.004.051-.056a.835.835 0 0 1-.05.056z"/></defs><g><g transform="translate(-951 -2275)"><use fill="#c68a43" xlink:href="#5jxja"/></g></g></svg>