<svg xmlns="http://www.w3.org/2000/svg" xmlns:xlink="http://www.w3.org/1999/xlink" width="19" height="22" viewBox="0 0 19 22"><defs><path id="9ueka" d="M846.95 2287.722c1.08-1.88-.348-2.292-.572-3.653-.916-5.566 6.53-9.368 10.43-5.478 2.698 2.693.921 10.975-3.429 10.113-4.167-.82 2.04-7.413-1.285-8.707-2.703-1.052-4.138 3.216-2.856 5.337-.753 3.65-2.37 7.085-1.715 11.658 2.124-1.514 2.841-4.417 3.428-7.444 1.068.638 1.64 1.301 3.001 1.404 5.022.383 7.828-4.929 7.14-9.832-.608-4.345-5.015-6.559-9.714-6.04-3.716.41-7.42 3.363-7.574 7.586-.093 2.578.65 4.513 3.145 5.056z"/></defs><g><g transform="translate(-843 -2275)"><use fill="#c68a43" xlink:href="#9ueka"/></g></g></svg>