<svg xmlns="http://www.w3.org/2000/svg" xmlns:xlink="http://www.w3.org/1999/xlink" width="32" height="21" viewBox="0 0 32 21"><defs><path id="30mza" d="M1032 2279h-8l-.023-2.132h7.957v1.883zm-13.32 7.473c.514.758.77 1.677.77 2.757 0 1.117-.289 2.12-.877 3.004a5.318 5.318 0 0 1-1.398 1.48c-.629.46-3.595 1.785-3.595 1.785l-1.58.5h-9v-21h9c2.405.039 4.91 1.79 5.917 3.093.604.8.903 1.76.903 2.875 0 1.15-.303 2.072-.913 2.772-.34.392-.84.749-1.504 1.07 1.005.351 1.768.903 2.277 1.664zM1007 2284l5.404-.265c.86 0 1.145-.382 1.68-.693.534-.31.801-.862.801-1.655 0-.876-.353-1.457-1.061-1.736-.609-.195-1.65-.622-2.596-.622L1007 2279zm8.288 4.961c0-.977-.42-1.653-1.257-2.016-.468-.207-.78-.85-1.627-.857L1007 2286v6l5.404-.03c.858 0 1.107-.435 1.586-.658.864-.41 1.298-1.191 1.298-2.35zm19.597-3.063c.096.616.14 1.51.122 2.678h-10.304c.057 1.355.548 2.303 1.479 2.845.562.341 1.242.507 2.04.507.84 0 1.526-.203 2.053-.619.287-.22.54-.532.76-.925h3.777c-.099.8-.554 1.612-1.37 2.437-1.267 1.311-3.043 1.969-5.323 1.969-1.884 0-3.545-.555-4.986-1.66-1.436-1.109-2.158-2.907-2.158-5.4 0-2.341.648-4.13 1.948-5.378 1.304-1.249 2.988-1.87 5.063-1.87 1.23 0 2.338.21 3.328.63a5.666 5.666 0 0 1 2.442 1.998c.581.803.955 1.73 1.129 2.788zm-4.706-1.78c-.587-.485-1.32-.729-2.193-.729-.952 0-1.686.26-2.208.773-.525.512-.852 1.208-.987 2.088h6.377c-.07-.937-.398-1.646-.99-2.131z"/></defs><g><g transform="translate(-1003 -2275)"><use fill="#c68a43" xlink:href="#30mza"/></g></g></svg>