<svg xmlns="http://www.w3.org/2000/svg" xmlns:xlink="http://www.w3.org/1999/xlink" width="22" height="22" viewBox="0 0 22 22"><defs><path id="n0rea" d="M915.999 1907c-.001 6.074-4.925 10.999-11 10.999-6.074 0-10.998-4.925-10.998-10.999 0-6.074 4.924-10.998 10.998-10.999 6.075 0 10.999 4.925 11 10.999zm-9.007-1.914c.193.427.385.872.574 1.337a14.183 14.183 0 0 1 2.486-.219h.008c1.094 0 2.267.129 3.508.393a8.521 8.521 0 0 0-1.83-4.894c-1.347 1.54-3.012 2.622-4.746 3.383zm-3.816-6.462c.744.953 1.834 2.512 2.96 4.691 1.605-.688 3.09-1.663 4.214-3.01a8.524 8.524 0 0 0-5.35-1.886c-.627 0-1.235.074-1.824.205zm-6.502 6.298c.191.006.42.01.685.01h.135c1.578 0 4.187-.18 6.777-.952-1.274-2.416-2.466-3.963-3.062-4.667a8.609 8.609 0 0 0-4.535 5.609zm1.773 7.598a14.655 14.655 0 0 1 2.367-2.76 13.584 13.584 0 0 1 4.83-2.85 33.696 33.696 0 0 0-.493-1.136c-3.052.964-6.064 1.108-7.79 1.12h-.001c-.378 0-.693-.008-.938-.018a2.1 2.1 0 0 0-.004.124c.001 2.104.766 4.025 2.029 5.52zm9.599 2.5a42.333 42.333 0 0 0-1.695-6.28c-1.921.626-3.393 1.678-4.459 2.7a12.379 12.379 0 0 0-1.99 2.45 8.52 8.52 0 0 0 8.144 1.13zm5.379-6.45c-1.22-.276-2.344-.404-3.368-.404h-.025c-.617 0-1.202.046-1.76.126a44.113 44.113 0 0 1 1.584 5.766 8.578 8.578 0 0 0 3.569-5.487z"/></defs><g><g transform="translate(-894 -1896)"><use fill="#424345" xlink:href="#n0rea"/></g></g></svg>