<svg xmlns="http://www.w3.org/2000/svg" xmlns:xlink="http://www.w3.org/1999/xlink" width="24" height="24" viewBox="0 0 24 24"><defs><path id="5j97a" d="M1864 663v18c0 .843-.507 1.453-1.11 2.057-.604.605-1.048.943-1.89.943h-18a3.225 3.225 0 0 1-2.272-.943c-.604-.604-.728-1.214-.728-2.058v-18c0-.843.124-1.528.728-2.132.603-.604 1.43-.867 2.272-.867h18c.843 0 1.286.262 1.89.867.603.604 1.11 1.289 1.11 2.132zm-16.983 8.915c0 1.292.471 2.394 1.413 3.305.942.911 2.073 1.368 3.395 1.368 1.331 0 2.468-.457 3.41-1.368.941-.911 1.412-2.013 1.412-3.305 0-1.292-.47-2.393-1.412-3.306-.942-.91-2.079-1.366-3.41-1.366-1.322 0-2.453.455-3.395 1.366-.942.913-1.413 2.014-1.413 3.306zM1862 680v-10h-3c.208.656.285 1.457.285 2.165a6.93 6.93 0 0 1-.999 3.633 7.29 7.29 0 0 1-2.715 2.634 7.496 7.496 0 0 1-3.746.969c-2.05 0-3.803-.706-5.26-2.118-1.457-1.412-2.185-3.117-2.185-5.118 0-.708.412-1.509.62-2.165h-3v10c0-.201.185 1.937 2 2h16c1.873.062 2-2 2-2zm-.4-16.4c-.028-1.032-1.2-1.2-1.2-1.2h-3c-.302 0-.67.34-.878.553a1.05 1.05 0 0 0-.312.758v2.578c0 .302.104.558.312.766.208.208.576.144.878.144h3c.452-.104.615-.097.656-.062.215-.258.544-.86.544-1.137zm-.6 3.6c-.128.128.122-.005.056-.063a.913.913 0 0 1-.056.062z"/></defs><g><g transform="translate(-1840 -660)"><use fill="#c68a43" xlink:href="#5j97a"/></g></g></svg>